# AST/ASF file generated using VICON BodyLanguage
# -----------------------------------------------
:version 1.10
:name VICON
:units
  mass 1.0
  length 0.45
  angle deg
:documentation
   .ast/.asf automatically generated from VICON data using
   VICON BodyBuilder and BodyLanguage model FoxedUp or BRILLIANT.MOD
:root
   order TX TY TZ RX RY RZ
   axis XYZ
   position 0 0 0  
   orientation 0 0 0 
:bonedata
  begin
     id 1 
     name lhipjoint
     direction 0.690799 -0.707083 0.151096 
     length 2.54797 
     axis 0 0 0  XYZ
  end
  begin
     id 2 
     name lfemur
     direction 0.34202 -0.939693 0  
     length 7.21646  
     axis 0 0 20  XYZ
    dof rx ry rz
    limits (-160.0 20.0)
           (-70.0 70.0)
           (-60.0 70.0)
  end
  begin
     id 3 
     name ltibia
     direction 0.34202 -0.939693 0   
     length 8.16759   
     axis 0 0 20   XYZ
    dof rx
    limits (-10.0 170.0)
  end
  begin
     id 4 
     name lfoot
     direction 0.0487203 -0.133858 0.989802   
     length 1.93375   
     axis -90 7.62852e-016 20   XYZ
    dof rx rz
    limits (-45.0 90.0)
           (-70.0 20.0)
  end
  begin
     id 5 
     name ltoes
     direction 1.53453e-011 -4.21783e-011 1   
     length 0.979747   
     axis -90 7.62852e-016 20   XYZ
    dof rx
    limits (-90.0 20.0)
  end
  begin
     id 6 
     name rhipjoint
     direction -0.694693 -0.703425 0.150315   
     length 2.56122  
     axis 0 0 0  XYZ 
  end
  begin
     id 7 
     name rfemur
     direction -0.34202 -0.939693 0   
     length 7.36786   
     axis 0 0 -20   XYZ
    dof rx ry rz
    limits (-160.0 20.0)
           (-70.0 70.0)
           (-70.0 60.0)
  end
  begin
     id 8 
     name rtibia
     direction -0.34202 -0.939693 0   
     length 8.07288   
     axis 0 0 -20   XYZ
    dof rx
    limits (-10.0 170.0)
 end
 begin
     id 9 
     name rfoot
     direction -0.0428397 -0.117701 0.992125   
     length 1.88295  
     axis -90 -7.62852e-016 -20   XYZ
    dof rx rz
    limits (-45.0 90.0)
           (-20.0 70.0)
  end
  begin
     id 10 
     name rtoes
     direction -1.53456e-011 -4.2187e-011 1   
     length 0.955578   
     axis -90 -7.62852e-016 -20   XYZ
    dof rx
    limits (-90.0 20.0)
  end
  begin
     id 11 
     name lowerback
     direction 0.0288145 0.999398 -0.0193241   
     length 1.92149   
     axis 0 0 0   XYZ
    dof rx ry rz
    limits (-20.0 45.0)
           (-30.0 30.0)
           (-30.0 30.0)
  end
  begin
     id 12 
     name upperback
     direction 0.0233784 0.998099 0.0570278   
     length 1.90435   
     axis 0 0 0   XYZ
    dof rx ry rz
    limits (-20.0 45.0)
           (-30.0 30.0)
           (-30.0 30.0)
  end
  begin
     id 13 
     name thorax
     direction 0.0096694 0.997833 0.0650817   
     length 1.9111   
     axis 0 0 0   XYZ
    dof rx ry rz
    limits (-20.0 45.0)
           (-30.0 30.0)
           (-30.0 30.0)
  end
  begin
     id 14 
     name lowerneck
     direction 0.00516803 0.999916 0.0118722   
     length 1.74664   
     axis 0 0 0   XYZ
    dof rx ry rz
    limits (-20.0 45.0)
           (-30.0 30.0)
           (-30.0 30.0)
  end
  begin
     id 15 
     name upperneck
     direction -0.0510851 0.996117 -0.071696   
     length 1.68498   
     axis 0 0 0   XYZ
    dof rx ry rz
    limits (-20.0 45.0)
           (-30.0 30.0)
           (-30.0 30.0)
  end
  begin
     id 16
     name head
     direction -0.019188 0.999436 -0.0275702  
     length 1.83483  
     axis 0 0 0   XYZ
    dof rx ry rz
    limits (-20.0 45.0)
           (-30.0 30.0)
           (-30.0 30.0)
  end
  begin
     id 17 
     name lclavicle
     direction 0.967006 0.248456 -0.0562957  
     length 3.39395  
     axis 0 0 0   XYZ
    dof ry rz
    limits (-20.0 10.0)
           (0.0 20.0)
  end
  begin
     id 18 
     name lhumerus
     direction 1 -4.48962e-011 -5.62711e-019   
     length 5.24318   
     axis 180 -30 -90   XYZ
    dof rx ry rz
    limits (-60.0 90.0)
           (-90.0 90.0)
           (-90.0 90.0)
  end
  begin
     id 19
     name lradius
     direction 1 -4.48966e-011 7.90625e-027   
     length 2.98999   
     axis 180 -30 -90   XYZ
    dof rx
    limits (-10.0 170.0)
  end
  begin
     id 20
     name lwrist
     direction 1 -4.48959e-011 1.61068e-026   
     length 1.49499   
     axis -9.31229e-015 90 90   XYZ
    dof ry
    limits (-180.0 0.0)
 end
  begin
     id 21 
     name lhand
     direction 1 -4.49017e-011 3.22136e-026   
     length 0.726745   
     axis -2.0555e-014 90 90   XYZ
    dof rx rz
    limits (-90.0 90.0)
           (-45.0 45.0)
  end
  begin
     id 22 
     name lfingers
     direction 1 -4.4898e-011 6.44272e-026   
     length 0.58592   
     axis -4.11101e-014 90 90   XYZ
    dof rx
    limits (0.0 90.0)
  end
  begin
     id 23
     name lthumb
     direction 0.707107 -6.34922e-011 0.707107   
     length 0.841268   
     axis -90 45 2.85299e-015   XYZ
    dof rx rz
    limits (-45.0 45.0)
           (-45.0 45.0)
  end
  begin
     id 24 
     name rclavicle
     direction -0.972232 0.230238 0.0419005   
     length 3.40416  
     axis 0 0 0   XYZ 
    dof ry rz
    limits (-10.0 20.0)
           (-20.0 0.0)
  end
  begin
     id 25 
     name rhumerus
     direction -1 -4.48976e-011 2.48487e-027  
     length 5.37045   
     axis 180 30 90   XYZ
    dof rx ry rz
    limits (-90.0 60.0)
           (-90.0 90.0)
           (-90.0 90.0)
  end
  begin
     id 26 
     name rradius
     direction -1 -4.48942e-011 7.87951e-027   
     length 2.92792   
     axis 180 30 90   XYZ
    dof rx
    limits (-10.0 170.0)
  end
  begin
     id 27 
     name rwrist
     direction -1 -4.48969e-011 1.61068e-026   
     length 1.46396   
     axis -9.31229e-015 -90 -90   XYZ
    dof ry
    limits (-180.0 0.0)
  end
  begin
     id 28
     name rhand
     direction -1 -4.49043e-011 3.22136e-026   
     length 0.784497   
     axis -2.0555e-014 -90 -90   XYZ
    dof rx rz
    limits (-90.0 90.0)
           (-45.0 45.0)
  end
  begin
     id 29
     name rfingers
     direction -1 -4.48823e-011 6.44272e-026   
     length 0.632482   
     axis -4.11101e-014 -90 -90   XYZ
    dof rx
    limits (0.0 90.0)
  end
  begin
     id 30
     name rthumb
     direction -0.707107 -6.34923e-011 0.707107   
     length 0.908121   
     axis -90 -45 -2.85299e-015   XYZ
    dof rx rz
    limits (-45.0 45.0)
           (-45.0 45.0)
  end
:hierarchy
  begin
    root lhipjoint rhipjoint lowerback
    lhipjoint lfemur
    lfemur ltibia
    ltibia lfoot
    lfoot ltoes
    rhipjoint rfemur
    rfemur rtibia
    rtibia rfoot
    rfoot rtoes
    lowerback upperback
    upperback thorax
    thorax lowerneck lclavicle rclavicle
    lowerneck upperneck
    upperneck head
    lclavicle lhumerus
    lhumerus lradius
    lradius lwrist
    lwrist lhand lthumb
    lhand lfingers
    rclavicle rhumerus
    rhumerus rradius
    rradius rwrist
    rwrist rhand rthumb
    rhand rfingers
  end

#!OML:ASF E:\Style6\Style6.ASF
:FULLY-SPECIFIED
:DEGREES
1916
root 0.0676781 16.4708 1.20509 -19.8955 -9.44657 -6.20941
lowerback -1.47157 -2.25759 -1.93631
upperback 10.8546 -3.04526 0.609874
thorax 12.673 -1.74204 1.35529
lowerneck 12.9936 -9.75767 0.138979
upperneck 7.4117 -12.8146 -7.72453
head -0.344887 -6.33922 -1.87449
rclavicle 1.00324e-015 2.38542e-015
rhumerus 59.6677 -43.4572 -30.161
rradius 94.5742
rwrist -55.9234
rhand 24.7744 9.51363
rfingers 7.12502
rthumb 48.9539 -12.2415
lclavicle 1.00324e-015 2.38542e-015
lhumerus -7.86029 -22.3289 71.7891
lradius 31.6165
lwrist -17.7386
lhand 12.617 17.1915
lfingers 7.12502
lthumb 37.6041 43.0974
rfemur 1.87733 -8.1456 21.8043
rtibia 49.3564
rfoot -22.2326 1.20781
rtoes -22.3755
lfemur 5.90403 5.57614 -6.35989
ltibia 52.1446
lfoot -27.0447 10.611
ltoes -32.2351
1917
root 0.0654852 16.4698 1.19969 -19.9621 -9.39527 -6.26664
lowerback -1.43622 -2.25503 -1.97594
upperback 10.9167 -3.03559 0.570362
thorax 12.7241 -1.73996 1.33543
lowerneck 13.1171 -9.70558 -0.0984841
upperneck 7.38118 -12.7791 -7.56908
head -0.344361 -6.32513 -1.78423
rclavicle 8.80243e-015 -6.36111e-015
rhumerus 59.0443 -43.7066 -30.0271
rradius 94.5138
rwrist -55.6954
rhand 25.1264 9.70901
rfingers 7.12502
rthumb 49.2772 -11.8851
lclavicle 8.80243e-015 -6.36111e-015
lhumerus -7.64887 -23.6058 71.2133
lradius 32.9056
lwrist -15.6426
lhand 12.5412 17.5269
lfingers 7.12502
lthumb 37.5324 43.4519
rfemur 1.95497 -8.20209 21.849
rtibia 49.3336
rfoot -22.2189 1.25415
rtoes -22.1623
lfemur 5.92184 5.58616 -6.24685
ltibia 52.1933
lfoot -27.0211 10.6245
ltoes -32.5444
1918
root 0.0630386 16.4695 1.19229 -19.9599 -9.29927 -6.35476
lowerback -1.4222 -2.30253 -2.02885
upperback 10.9651 -3.0952 0.55254
thorax 12.7782 -1.77413 1.33698
lowerneck 13.1213 -9.65774 -0.341497
upperneck 7.37106 -12.7473 -7.49177
head -0.324131 -6.31532 -1.72376
rclavicle 3.79617e-014 -5.56597e-015
rhumerus 58.4713 -43.9053 -29.897
rradius 94.3994
rwrist -55.4079
rhand 25.4417 9.95947
rfingers 7.12502
rthumb 49.5663 -11.488
lclavicle 3.79617e-014 -5.56597e-015
lhumerus -7.40061 -24.5413 70.5897
lradius 34.219
lwrist -13.9553
lhand 12.9115 17.7881
lfingers 7.12502
lthumb 37.8822 43.6193
rfemur 1.9566 -8.28701 21.9343
rtibia 49.3061
rfoot -22.2019 1.31803
rtoes -21.6555
lfemur 5.82392 5.5474 -6.13036
ltibia 52.2704
lfoot -27.0217 10.5086
ltoes -32.5985
1919
root 0.0602793 16.4685 1.18395 -19.9791 -9.21249 -6.44153
lowerback -1.36312 -2.33755 -2.07256
upperback 11.0109 -3.13802 0.523748
thorax 12.7991 -1.79845 1.32566
lowerneck 12.9033 -9.62617 -0.442741
upperneck 7.54373 -12.7036 -7.57603
head -0.231637 -6.30464 -1.7525
rclavicle 6.26172e-015 4.29375e-014
rhumerus 57.8857 -44.1195 -29.8046
rradius 94.3468
rwrist -55.137
rhand 25.7839 9.87426
rfingers 7.12502
rthumb 49.8799 -11.4113
lclavicle 6.26172e-015 4.29375e-014
lhumerus -7.07391 -25.565 69.8705
lradius 35.56
lwrist -12.3805
lhand 13.6564 18.0459
lfingers 7.12502
lthumb 38.5854 43.6835
rfemur 1.96825 -8.37202 22.0214
rtibia 49.2982
rfoot -22.1879 1.227
rtoes -22.0799
lfemur 5.7337 5.51567 -6.00355
ltibia 52.36
lfoot -27.0255 10.4243
ltoes -32.6625
1920
root 0.057574 16.4649 1.17573 -19.9904 -9.1189 -6.53854
lowerback -1.34138 -2.371 -2.11531
upperback 11.0548 -3.17805 0.49519
thorax 12.8408 -1.82123 1.31283
lowerneck 12.8362 -9.59013 -0.503759
upperneck 7.61141 -12.6569 -7.65862
head -0.199822 -6.28535 -1.77642
rclavicle 4.7025e-015 -1.35174e-014
rhumerus 57.3738 -44.3536 -29.8202
rradius 94.2775
rwrist -54.8091
rhand 26.2919 9.71011
rfingers 7.12502
rthumb 50.3445 -11.3298
lclavicle 4.7025e-015 -1.35174e-014
lhumerus -6.63192 -26.7194 69.0526
lradius 36.8653
lwrist -10.7403
lhand 14.3232 18.4936
lfingers 7.12502
lthumb 39.2142 43.9519
rfemur 1.96618 -8.44323 22.1271
rtibia 49.3092
rfoot -22.1843 1.00279
rtoes -22.8277
lfemur 5.6337 5.49995 -5.8496
ltibia 52.465
lfoot -27.0535 10.3298
ltoes -32.6648
1921
root 0.0564311 16.4632 1.16893 -19.932 -8.95405 -6.53671
lowerback -1.4593 -2.40671 -2.26321
upperback 11.095 -3.20785 0.451543
thorax 12.9715 -1.84866 1.33688
lowerneck 12.9591 -9.57003 -0.604776
upperneck 7.50595 -12.6501 -7.68122
head -0.247956 -6.27788 -1.75873
rclavicle 2.51338e-014 -1.59028e-015
rhumerus 56.8904 -44.5842 -29.8341
rradius 94.1468
rwrist -54.3642
rhand 26.7268 9.70983
rfingers 7.12502
rthumb 50.7416 -11.1146
lclavicle 2.51338e-014 -1.59028e-015
lhumerus -5.94478 -27.7933 68.1752
lradius 37.9248
lwrist -9.32798
lhand 15.0101 18.7596
lfingers 7.12502
lthumb 39.8611 44.0274
rfemur 1.88279 -8.5507 22.0986
rtibia 49.3338
rfoot -22.2049 1.01338
rtoes -22.7504
lfemur 5.44416 5.4622 -5.86577
ltibia 52.5614
lfoot -27.0592 10.2663
ltoes -32.6775
1922
root 0.0559118 16.4601 1.16063 -19.8663 -8.85243 -6.58083
lowerback -1.49985 -2.43877 -2.33268
upperback 11.0949 -3.24193 0.424888
thorax 13.0018 -1.87047 1.33998
lowerneck 13.0123 -9.53161 -0.785769
upperneck 7.51231 -12.6223 -7.6491
head -0.238508 -6.2677 -1.71986
rclavicle 2.03879e-014 3.02153e-014
rhumerus 56.4153 -44.7473 -29.8118
rradius 93.9415
rwrist -53.8172
rhand 27.0619 9.77626
rfingers 7.12502
rthumb 51.0471 -10.8788
lclavicle 2.03879e-014 3.02153e-014
lhumerus -5.18641 -28.793 67.2486
lradius 38.8776
lwrist -8.16054
lhand 15.8555 18.9253
lfingers 7.12502
lthumb 40.6563 43.95
rfemur 1.77803 -8.61403 22.143
rtibia 49.3623
rfoot -22.1679 1.00845
rtoes -22.6611
lfemur 5.25608 5.47074 -5.80694
ltibia 52.6695
lfoot -27.0331 10.2627
ltoes -32.9702
1923
root 0.0554114 16.4575 1.15178 -19.8894 -8.81788 -6.68972
lowerback -1.41895 -2.45294 -2.32092
upperback 11.1104 -3.26484 0.431758
thorax 12.9706 -1.88125 1.34119
lowerneck 13.163 -9.50494 -0.988363
upperneck 7.44566 -12.6195 -7.63574
head -0.268871 -6.26584 -1.67521
rclavicle -4.21796e-014 2.94201e-014
rhumerus 55.888 -44.9536 -29.7077
rradius 93.7981
rwrist -53.2757
rhand 27.473 9.61439
rfingers 7.12502
rthumb 51.4214 -10.8288
lclavicle -4.21796e-014 2.94201e-014
lhumerus -4.38604 -29.7012 66.3104
lradius 39.8156
lwrist -7.11821
lhand 16.6007 19.1346
lfingers 7.12502
lthumb 41.3562 43.9368
rfemur 1.78009 -8.62995 22.2708
rtibia 49.3704
rfoot -22.1282 1.10703
rtoes -21.7262
lfemur 5.1808 5.48457 -5.63292
ltibia 52.7929
lfoot -27.0684 10.2111
ltoes -33.233
1924
root 0.0544351 16.4526 1.14262 -19.9505 -8.83655 -6.85554
lowerback -1.30934 -2.44765 -2.24082
upperback 11.1444 -3.26928 0.454786
thorax 12.9386 -1.87748 1.32537
lowerneck 13.3941 -9.50802 -1.12347
upperneck 7.30563 -12.6545 -7.63475
head -0.34251 -6.27669 -1.63672
rclavicle -2.7072e-014 -8.74653e-015
rhumerus 55.287 -45.1806 -29.5666
rradius 93.6721
rwrist -52.6416
rhand 27.8131 9.40049
rfingers 7.12502
rthumb 51.7305 -10.8639
lclavicle -2.7072e-014 -8.74653e-015
lhumerus -3.51903 -30.6477 65.2627
lradius 40.8734
lwrist -6.11379
lhand 17.2473 19.4653
lfingers 7.12502
lthumb 41.9627 44.0678
rfemur 1.83274 -8.62531 22.4813
rtibia 49.3566
rfoot -22.1032 1.07888
rtoes -21.3836
lfemur 5.15317 5.53875 -5.34885
ltibia 52.9419
lfoot -27.1458 10.0912
ltoes -33.3066
1925
root 0.0532695 16.45 1.13415 -19.9994 -8.88486 -7.05606
lowerback -1.21044 -2.45085 -2.08447
upperback 11.1937 -3.29061 0.470803
thorax 12.9263 -1.8737 1.25655
lowerneck 13.3112 -9.50478 -1.2063
upperneck 7.38506 -12.653 -7.71149
head -0.303654 -6.28126 -1.65417
rclavicle 3.98191e-014 7.95139e-016
rhumerus 54.7775 -45.3887 -29.5304
rradius 93.4792
rwrist -51.905
rhand 28.0239 9.35523
rfingers 7.12502
rthumb 51.9218 -10.7967
lclavicle 3.98191e-014 7.95139e-016
lhumerus -2.58116 -31.5384 64.0788
lradius 42.0416
lwrist -5.12066
lhand 17.8971 19.9381
lfingers 7.12502
lthumb 42.5713 44.3338
rfemur 1.88615 -8.60491 22.7458
rtibia 49.3242
rfoot -22.1075 0.874971
rtoes -22.0535
lfemur 5.10225 5.63168 -4.99879
ltibia 53.1042
lfoot -27.2828 9.67471
ltoes -32.6427
1926
root 0.0524557 16.4491 1.12785 -20.0326 -8.8702 -7.19645
lowerback -1.15752 -2.47062 -2.00914
upperback 11.2308 -3.32587 0.477538
thorax 12.9343 -1.88419 1.21898
lowerneck 13.1346 -9.49482 -1.28376
upperneck 7.51454 -12.6358 -7.82483
head -0.236505 -6.28134 -1.69069
rclavicle -1.19022e-014 -2.62396e-014
rhumerus 54.4074 -45.5817 -29.5662
rradius 93.1971
rwrist -51.0188
rhand 28.2476 9.40848
rfingers 7.12502
rthumb 52.1248 -10.6228
lclavicle -1.19022e-014 -2.62396e-014
lhumerus -1.59027 -32.1946 62.9205
lradius 43.0688
lwrist -4.4259
lhand 18.6609 20.2667
lfingers 7.12502
lthumb 43.2857 44.4109
rfemur 1.93148 -8.6183 22.9185
rtibia 49.292
rfoot -22.0554 0.70959
rtoes -22.5025
lfemur 5.02793 5.65785 -4.76691
ltibia 53.2448
lfoot -27.4125 9.29861
ltoes -32.0223
1927
root 0.0527541 16.4438 1.1209 -20.054 -8.83882 -7.33361
lowerback -1.08871 -2.49238 -1.94454
upperback 11.2413 -3.36335 0.490055
thorax 12.9018 -1.8968 1.195
lowerneck 13.0173 -9.51447 -1.30086
upperneck 7.60782 -12.6531 -8.00235
head -0.20062 -6.29421 -1.75061
rclavicle 8.12532e-015 -5.1684e-014
rhumerus 54.1351 -45.7451 -29.707
rradius 92.917
rwrist -50.046
rhand 28.7002 9.31506
rfingers 7.12502
rthumb 52.5346 -10.4676
lclavicle 8.12532e-015 -5.1684e-014
lhumerus -0.580289 -32.7981 61.7481
lradius 44.0561
lwrist -3.90117
lhand 19.2763 20.5684
lfingers 7.12502
lthumb 43.8604 44.5032
rfemur 1.94789 -8.65216 23.0733
rtibia 49.2911
rfoot -22.0213 0.702772
rtoes -22.1556
lfemur 4.98132 5.67997 -4.56846
ltibia 53.3404
lfoot -27.3403 9.54153
ltoes -33.0056
1928
root 0.0547504 16.4387 1.11433 -20.0558 -8.80595 -7.43076
lowerback -1.06277 -2.53132 -1.87689
upperback 11.2769 -3.42206 0.481181
thorax 12.9252 -1.91827 1.14056
lowerneck 12.8983 -9.54276 -1.32821
upperneck 7.60497 -12.6895 -8.12269
head -0.190933 -6.31409 -1.78736
rclavicle 1.15047e-014 -8.74653e-015
rhumerus 53.9854 -45.9551 -29.9769
rradius 92.7282
rwrist -48.9956
rhand 29.195 9.06016
rfingers 7.12502
rthumb 52.9818 -10.4437
lclavicle 1.15047e-014 -8.74653e-015
lhumerus 0.532307 -33.3052 60.4844
lradius 45.0594
lwrist -3.5103
lhand 19.7407 20.8181
lfingers 7.12502
lthumb 44.2935 44.5907
rfemur 1.92054 -8.69975 23.1679
rtibia 49.3188
rfoot -22.041 0.684836
rtoes -22.2348
lfemur 4.93948 5.70974 -4.43258
ltibia 53.3848
lfoot -27.2408 9.80814
ltoes -33.9398
1929
root 0.0563227 16.4369 1.1112 -20.0833 -8.74641 -7.3085
lowerback -1.09025 -2.56964 -2.04963
upperback 11.322 -3.45613 0.43309
thorax 13.0073 -1.95052 1.17659
lowerneck 12.8468 -9.55299 -1.44553
upperneck 7.51773 -12.7217 -8.11585
head -0.202982 -6.33088 -1.76514
rclavicle 2.4699e-014 1.43125e-014
rhumerus 53.9619 -46.1319 -30.3251
rradius 92.5187
rwrist -47.7658
rhand 29.5459 8.95881
rfingers 7.12502
rthumb 53.2982 -10.3429
lclavicle 2.4699e-014 1.43125e-014
lhumerus 1.68104 -33.7136 59.203
lradius 46.1683
lwrist -3.06247
lhand 20.1905 21.5637
lfingers 7.12502
lthumb 44.7125 45.1757
rfemur 1.90338 -8.70713 23.0163
rtibia 49.3674
rfoot -22.0659 0.608825
rtoes -22.8096
lfemur 4.93188 5.73302 -4.57002
ltibia 53.3767
lfoot -27.2363 9.70191
ltoes -33.8062
1930
root 0.0573684 16.4385 1.11063 -20.1596 -8.70843 -7.18001
lowerback -1.09678 -2.59508 -2.2296
upperback 11.3673 -3.47246 0.386898
thorax 13.0767 -1.97528 1.22182
lowerneck 12.8317 -9.57656 -1.49533
upperneck 7.41329 -12.7655 -8.12956
head -0.232995 -6.35018 -1.75677
rclavicle -5.30507e-015 9.54166e-015
rhumerus 53.8996 -46.2949 -30.6417
rradius 92.253
rwrist -46.4248
rhand 29.8307 8.93984
rfingers 7.12502
rthumb 53.5547 -10.1949
lclavicle -5.30507e-015 9.54166e-015
lhumerus 2.79588 -34.1864 57.8834
lradius 47.4337
lwrist -2.51776
lhand 20.5879 22.5697
lfingers 7.12502
lthumb 45.0823 46.0368
rfemur 1.95578 -8.6908 22.8473
rtibia 49.3916
rfoot -22.0501 0.77047
rtoes -22.091
lfemur 5.01258 5.73546 -4.71684
ltibia 53.3498
lfoot -27.2336 9.66919
ltoes -33.8153
